<svg xmlns="http://www.w3.org/2000/svg" viewBox="0 0 24 24" fill="currentColor">
    <path d="M12 2a1 1 0 011 1v2a1 1 0 01-2 0V3a1 1 0 011-1zm0 17a1 1 0 011 1v2a1 1 0 01-2 0v-2a1 1 0 011-1zm10-7a1 1 0 010 2h-2a1 1 0 010-2h2zM4 12a1 1 0 010 2H2a1 1 0 010-2h2zm15.071-7.071a1 1 0 010 1.414l-1.414 1.414a1 1 0 01-1.414-1.414l1.414-1.414a1 1 0 011.414 0zM6.343 17.657a1 1 0 010 1.414l-1.414 1.414a1 1 0 01-1.414-1.414l1.414-1.414a1 1 0 011.414 0zm12.728 0a1 1 0 011.414 0l1.414 1.414a1 1 0 01-1.414 1.414l-1.414-1.414a1 1 0 010-1.414zM6.343 6.343a1 1 0 010 1.414L4.929 9.171a1 1 0 01-1.414-1.414l1.414-1.414a1 1 0 011.414 0zM12 6a6 6 0 100 12 6 6 0 000-12z"/>
</svg>